<?xml version="1.0" encoding="UTF-8" standalone="no"?>
<svg
   width="3200"
   height="573"
   viewBox="0 0 3200 573"
   fill="none"
   version="1.1"
   id="svg18"
   sodipodi:docname="riss-logo.svg"
   inkscape:version="1.2 (dc2aedaf03, 2022-05-15)"
   xmlns:inkscape="http://www.inkscape.org/namespaces/inkscape"
   xmlns:sodipodi="http://sodipodi.sourceforge.net/DTD/sodipodi-0.dtd"
   xmlns="http://www.w3.org/2000/svg"
   xmlns:svg="http://www.w3.org/2000/svg">
  <defs
     id="defs22" />
  <sodipodi:namedview
     id="namedview20"
     pagecolor="#ffffff"
     bordercolor="#999999"
     borderopacity="1"
     inkscape:showpageshadow="0"
     inkscape:pageopacity="0"
     inkscape:pagecheckerboard="0"
     inkscape:deskcolor="#d1d1d1"
     showgrid="false"
     inkscape:zoom="0.231875"
     inkscape:cx="2214.5553"
     inkscape:cy="56.06469"
     inkscape:window-width="1920"
     inkscape:window-height="974"
     inkscape:window-x="-11"
     inkscape:window-y="-11"
     inkscape:window-maximized="1"
     inkscape:current-layer="svg18" />
  <path
     d="M533.62 507.314C572.654 507.314 604.298 475.671 604.298 436.636V151.431C585.378 168.821 560.791 180.137 533.62 182.287V507.314Z"
     fill="white"
     id="path2"
     style="fill:#162c56;fill-opacity:1" />
  <path
     d="M540.596 146.85H533.62V83.1489H604.298C604.298 118.33 575.778 146.85 540.596 146.85Z"
     fill="white"
     id="path4"
     style="fill:#162c56;fill-opacity:1" />
  <path
     d="M838.366 504.435H637.269C637.269 465.401 668.912 433.757 707.947 433.757H838.366C866.689 433.757 889.649 410.797 889.649 382.474C889.649 354.151 866.689 331.191 838.366 331.191H762.038C693.543 331.191 638.017 275.665 638.017 207.17C638.017 138.675 693.543 83.1489 762.038 83.1489H958.116C958.116 122.183 926.473 153.827 887.438 153.827H762.038C732.577 153.827 708.694 177.71 708.694 207.171C708.694 236.632 732.577 260.515 762.038 260.515H838.366C905.723 260.515 960.326 315.119 960.326 382.475C960.326 449.831 905.723 504.435 838.366 504.435Z"
     fill="white"
     id="path6"
     style="fill:#162c56;fill-opacity:1" />
  <path
     d="M1164.76 504.435H963.666C963.666 465.401 995.309 433.757 1034.34 433.757H1164.76C1193.09 433.757 1216.05 410.797 1216.05 382.474C1216.05 354.151 1193.09 331.191 1164.76 331.191H1088.44C1019.94 331.191 964.414 275.665 964.414 207.17C964.414 138.675 1019.94 83.1489 1088.44 83.1489H1284.51C1284.51 122.183 1252.87 153.827 1213.83 153.827H1088.43C1058.97 153.827 1035.09 177.71 1035.09 207.171C1035.09 236.632 1058.97 260.515 1088.43 260.515H1164.76C1232.12 260.515 1286.72 315.119 1286.72 382.475C1286.72 449.831 1232.12 504.435 1164.76 504.435Z"
     fill="white"
     id="path8"
     style="fill:#162c56;fill-opacity:1" />
  <path
     d="M424.741 468.968C338.346 437.455 229.431 382.869 201.122 301.759L267.856 278.469C282.39 320.118 350.09 366.52 448.958 402.589L424.741 468.968Z"
     fill="white"
     id="path10"
     style="fill:#162c56;fill-opacity:1" />
  <path
     d="M526.083 321.903C489.151 311.949 457.706 300.491 431.396 287.366C411.32 302.397 386.626 316.105 356.719 325.297C395.387 351.931 445.308 373.341 507.684 390.145L526.083 321.903Z"
     fill="white"
     id="path12"
     style="fill:#162c56;fill-opacity:1" />
  <path
     d="M332.883 536.707C110.536 456.721 82.07 299.008 80.966 292.333L73.63 247.962L118.484 251.334C250.66 261.273 345.99 242.399 393.447 193.049C412.487 173.24 413.832 156.532 417.273 140.608C237.344 113.049 70.974 154.58 69.228 155.024L51.707 86.5541C59.871 84.4541 254.146 33.0691 461.476 73.9391L497.657 81.5941V107.23C497.657 134.242 486.372 195.869 444.077 240.043C388.422 298.17 295.652 326.152 167.815 324.357C190.641 366.243 242.397 429.033 356.805 470.209L332.883 536.707Z"
     fill="white"
     id="path14"
     style="fill:#162c56;fill-opacity:1" />
</svg>
