<?xml version="1.0" encoding="UTF-8" standalone="no"?>
<svg
   width="1297.7418"
   height="563.30933"
   viewBox="0 0 1297.7418 563.30933"
   fill="none"
   version="1.1"
   id="svg18"
   sodipodi:docname="riss-logo-login.svg"
   inkscape:version="1.2 (dc2aedaf03, 2022-05-15)"
   xmlns:inkscape="http://www.inkscape.org/namespaces/inkscape"
   xmlns:sodipodi="http://sodipodi.sourceforge.net/DTD/sodipodi-0.dtd"
   xmlns="http://www.w3.org/2000/svg"
   xmlns:svg="http://www.w3.org/2000/svg">
  <defs
     id="defs22" />
  <sodipodi:namedview
     id="namedview20"
     pagecolor="#ffffff"
     bordercolor="#999999"
     borderopacity="1"
     inkscape:showpageshadow="0"
     inkscape:pageopacity="0"
     inkscape:pagecheckerboard="0"
     inkscape:deskcolor="#d1d1d1"
     showgrid="false"
     inkscape:zoom="0.46375"
     inkscape:cx="708.3558"
     inkscape:cy="280.32345"
     inkscape:window-width="1920"
     inkscape:window-height="974"
     inkscape:window-x="-11"
     inkscape:window-y="-11"
     inkscape:window-maximized="1"
     inkscape:current-layer="svg18" />
  <g
     id="g643"
     transform="translate(-20.342589,-15.797972)"
     style="fill:#ffffff">
    <path
       d="m 533.62,507.314 c 39.034,0 70.678,-31.643 70.678,-70.678 V 151.431 c -18.92,17.39 -43.507,28.706 -70.678,30.856 z"
       fill="white"
       id="path2"
       style="fill:#ffffff;fill-opacity:1" />
    <path
       d="M 540.596,146.85 H 533.62 V 83.1489 h 70.678 c 0,35.1811 -28.52,63.7011 -63.702,63.7011 z"
       fill="white"
       id="path4"
       style="fill:#ffffff;fill-opacity:1" />
    <path
       d="M 838.366,504.435 H 637.269 c 0,-39.034 31.643,-70.678 70.678,-70.678 h 130.419 c 28.323,0 51.283,-22.96 51.283,-51.283 0,-28.323 -22.96,-51.283 -51.283,-51.283 h -76.328 c -68.495,0 -124.021,-55.526 -124.021,-124.021 0,-68.495 55.526,-124.0211 124.021,-124.0211 h 196.078 c 0,39.0341 -31.643,70.6781 -70.678,70.6781 h -125.4 c -29.461,0 -53.344,23.883 -53.344,53.344 0,29.461 23.883,53.344 53.344,53.344 h 76.328 c 67.357,0 121.96,54.604 121.96,121.96 0,67.356 -54.603,121.96 -121.96,121.96 z"
       fill="white"
       id="path6"
       style="fill:#ffffff;fill-opacity:1" />
    <path
       d="M 1164.76,504.435 H 963.666 c 0,-39.034 31.643,-70.678 70.674,-70.678 h 130.42 c 28.33,0 51.29,-22.96 51.29,-51.283 0,-28.323 -22.96,-51.283 -51.29,-51.283 h -76.32 c -68.5,0 -124.026,-55.526 -124.026,-124.021 0,-68.495 55.526,-124.0211 124.026,-124.0211 h 196.07 c 0,39.0341 -31.64,70.6781 -70.68,70.6781 h -125.4 c -29.46,0 -53.34,23.883 -53.34,53.344 0,29.461 23.88,53.344 53.34,53.344 h 76.33 c 67.36,0 121.96,54.604 121.96,121.96 0,67.356 -54.6,121.96 -121.96,121.96 z"
       fill="white"
       id="path8"
       style="fill:#ffffff;fill-opacity:1" />
    <path
       d="M 424.741,468.968 C 338.346,437.455 229.431,382.869 201.122,301.759 l 66.734,-23.29 c 14.534,41.649 82.234,88.051 181.102,124.12 z"
       fill="white"
       id="path10"
       style="fill:#ffffff;fill-opacity:1" />
    <path
       d="m 526.083,321.903 c -36.932,-9.954 -68.377,-21.412 -94.687,-34.537 -20.076,15.031 -44.77,28.739 -74.677,37.931 38.668,26.634 88.589,48.044 150.965,64.848 z"
       fill="white"
       id="path12"
       style="fill:#ffffff;fill-opacity:1" />
    <path
       d="M 332.883,536.707 C 110.536,456.721 82.07,299.008 80.966,292.333 l -7.336,-44.371 44.854,3.372 c 132.176,9.939 227.506,-8.935 274.963,-58.285 19.04,-19.809 20.385,-36.517 23.826,-52.441 C 237.344,113.049 70.974,154.58 69.228,155.024 L 51.707,86.5541 c 8.164,-2.1 202.439,-53.485 409.769,-12.615 l 36.181,7.655 V 107.23 c 0,27.012 -11.285,88.639 -53.58,132.813 -55.655,58.127 -148.425,86.109 -276.262,84.314 22.826,41.886 74.582,104.676 188.99,145.852 z"
       fill="white"
       id="path14"
       style="fill:#ffffff;fill-opacity:1" />
  </g>
</svg>
