<?xml version="1.0" encoding="iso-8859-1"?>
<svg xmlns="http://www.w3.org/2000/svg" xmlns:xlink="http://www.w3.org/1999/xlink" version="1.1" id="Layer_1" x="0px" y="0px" viewBox="0 0 572.638 572.638" style="enable-background:new 0 0 572.638 572.638;" xml:space="preserve">
<g>	
	<g>
		<defs>
			<path id="SVGID_1_" d="M84.109,81.648l-4.833,1.003v142.585c0,128.975,80.512,226.087,209.403,286.769h0.191     c128.886-60.677,209.403-157.793,209.403-286.769V82.651l-4.649-0.966C358.563,53.629,219.177,53.616,84.109,81.648z"/>
		</defs>
		<clipPath id="SVGID_2_">
			<use xlink:href="#SVGID_1_" style="overflow:visible;"/>
		</clipPath>
		<g style="clip-path:url(#SVGID_2_);">
			<path style="fill:#ffffff;" d="M424.741,468.968c-86.395-31.513-195.31-86.099-223.619-167.209l66.734-23.29     c14.534,41.649,82.234,88.051,181.102,124.12L424.741,468.968z"/>
		</g>
		<g style="clip-path:url(#SVGID_2_);">
			<path style="fill:#ffffff;" d="M526.083,321.903c-36.932-9.954-68.377-21.412-94.687-34.537     c-20.076,15.031-44.77,28.739-74.677,37.931c38.668,26.634,88.589,48.044,150.965,64.848L526.083,321.903z"/>
		</g>
		<g style="clip-path:url(#SVGID_2_);">
			<path style="fill:#ffffff;" d="M332.883,536.707C110.536,456.721,82.07,299.008,80.966,292.333l-7.336-44.371l44.854,3.372     c132.176,9.939,227.506-8.935,274.963-58.285c19.04-19.809,20.385-36.517,23.826-52.441     c-179.929-27.559-346.299,13.972-348.045,14.416L51.707,86.554c8.164-2.1,202.439-53.485,409.769-12.615l36.181,7.655v25.636     c0,27.012-11.285,88.639-53.58,132.813c-55.655,58.127-148.425,86.109-276.262,84.314     c22.826,41.886,74.582,104.676,188.99,145.852L332.883,536.707z"/>
		</g>
	</g>
</g>















</svg>
